<?xml version="1.0" encoding="UTF-8" standalone="no"?>
<!-- Created with Inkscape (http://www.inkscape.org/) -->

<svg
   xmlns:dc="http://purl.org/dc/elements/1.1/"
   xmlns:cc="http://creativecommons.org/ns#"
   xmlns:rdf="http://www.w3.org/1999/02/22-rdf-syntax-ns#"
   xmlns:svg="http://www.w3.org/2000/svg"
   xmlns="http://www.w3.org/2000/svg"
   xmlns:sodipodi="http://sodipodi.sourceforge.net/DTD/sodipodi-0.dtd"
   xmlns:inkscape="http://www.inkscape.org/namespaces/inkscape"
   width="173mm"
   height="62mm"
   viewBox="0 0 173 62"
   version="1.1"
   id="svg8"
   inkscape:version="0.92.1 r15371"
   sodipodi:docname="MEA-button.svg">
  <defs
     id="defs2">
    <style
       id="style4487">.cls-1{fill:url(#linear-gradient);}.cls-2{opacity:0.35;fill:url(#radial-gradient);}.cls-2,.cls-4{isolation:isolate;}.cls-3{fill:url(#linear-gradient-2);}.cls-4{opacity:0.41;fill:url(#radial-gradient-2);}.cls-5{fill:url(#radial-gradient-3);}.cls-6{fill:url(#radial-gradient-4);}</style>
    <linearGradient
       gradientUnits="userSpaceOnUse"
       gradientTransform="matrix(1,0,0,-1,0,266)"
       y2="84.03"
       x2="241.67"
       y1="84.03"
       x1="63.33"
       id="linear-gradient">
      <stop
         id="stop4489"
         stop-color="#0c59a4"
         offset="0" />
      <stop
         id="stop4491"
         stop-color="#114a8b"
         offset="1" />
    </linearGradient>
    <radialGradient
       gradientUnits="userSpaceOnUse"
       gradientTransform="matrix(1,0,0,-0.95,0,248.84)"
       r="95.38"
       cy="68.91"
       cx="161.83"
       id="radial-gradient">
      <stop
         id="stop4494"
         stop-opacity="0"
         offset="0.72" />
      <stop
         id="stop4496"
         stop-opacity="0.53"
         offset="0.95" />
      <stop
         id="stop4498"
         offset="1" />
    </radialGradient>
    <linearGradient
       gradientUnits="userSpaceOnUse"
       gradientTransform="matrix(1,0,0,-1,0,266)"
       y2="40.06"
       x2="45.96"
       y1="161.39"
       x1="157.35"
       id="linear-gradient-2">
      <stop
         id="stop4501"
         stop-color="#1b9de2"
         offset="0" />
      <stop
         id="stop4503"
         stop-color="#1595df"
         offset="0.16" />
      <stop
         id="stop4505"
         stop-color="#0680d7"
         offset="0.67" />
      <stop
         id="stop4507"
         stop-color="#0078d4"
         offset="1" />
    </linearGradient>
    <radialGradient
       gradientUnits="userSpaceOnUse"
       gradientTransform="matrix(0.15,-0.99,-0.8,-0.12,176.64,-125.4)"
       r="143.24"
       cy="62.99"
       cx="-340.29"
       id="radial-gradient-2">
      <stop
         id="stop4510"
         stop-opacity="0"
         offset="0.76" />
      <stop
         id="stop4512"
         stop-opacity="0.5"
         offset="0.95" />
      <stop
         id="stop4514"
         offset="1" />
    </radialGradient>
    <radialGradient
       gradientUnits="userSpaceOnUse"
       gradientTransform="matrix(-0.04,1,2.13,0.08,-1179.54,-106.69)"
       r="202.43"
       cy="570.21"
       cx="113.37"
       id="radial-gradient-3">
      <stop
         id="stop4517"
         stop-color="#35c1f1"
         offset="0" />
      <stop
         id="stop4519"
         stop-color="#34c1ed"
         offset="0.11" />
      <stop
         id="stop4521"
         stop-color="#2fc2df"
         offset="0.23" />
      <stop
         id="stop4523"
         stop-color="#2bc3d2"
         offset="0.31" />
      <stop
         id="stop4525"
         stop-color="#36c752"
         offset="0.67" />
    </radialGradient>
    <radialGradient
       gradientUnits="userSpaceOnUse"
       gradientTransform="matrix(0.28,0.96,0.78,-0.23,-303.76,-148.5)"
       r="97.34"
       cy="567.97"
       cx="376.52"
       id="radial-gradient-4">
      <stop
         id="stop4528"
         stop-color="#66eb6e"
         offset="0" />
      <stop
         id="stop4530"
         stop-opacity="0"
         stop-color="#66eb6e"
         offset="1" />
    </radialGradient>
  </defs>
  <sodipodi:namedview
     id="base"
     pagecolor="#ffffff"
     bordercolor="#666666"
     borderopacity="1.0"
     inkscape:pageopacity="0.0"
     inkscape:pageshadow="2"
     inkscape:zoom="0.7"
     inkscape:cx="680.12936"
     inkscape:cy="17.153298"
     inkscape:document-units="mm"
     inkscape:current-layer="layer1"
     showgrid="false"
     inkscape:window-width="2560"
     inkscape:window-height="1377"
     inkscape:window-x="-8"
     inkscape:window-y="32"
     inkscape:window-maximized="1" />
  <metadata
     id="metadata5">
    <rdf:RDF>
      <cc:Work
         rdf:about="">
        <dc:format>image/svg+xml</dc:format>
        <dc:type
           rdf:resource="http://purl.org/dc/dcmitype/StillImage" />
        <dc:title></dc:title>
      </cc:Work>
    </rdf:RDF>
  </metadata>
  <g
     inkscape:label="Ebene 1"
     inkscape:groupmode="layer"
     id="layer1"
     transform="translate(0,-235)">
    <rect
       style="opacity:1;fill:#20989a;fill-opacity:1;stroke:none;stroke-width:0;stroke-miterlimit:4;stroke-dasharray:none;stroke-opacity:1;paint-order:stroke markers fill"
       id="rect4485"
       width="172"
       height="60"
       x="0.75595236"
       y="236.24405"
       ry="9.0862904"
       inkscape:export-filename="F:\Programmieren\Git\Firefox Addons\ClearUrls\promotion\MEA-button.png"
       inkscape:export-xdpi="25.4"
       inkscape:export-ydpi="25.4" />
    <g
       id="g4586"
       transform="matrix(0.18042983,0,0,0.18191038,10.112503,242.71284)"
       inkscape:export-filename="F:\Programmieren\Git\Firefox Addons\ClearUrls\promotion\MEA-button.png"
       inkscape:export-xdpi="25.4"
       inkscape:export-ydpi="25.4">
      <path
         id="path4537"
         transform="translate(-4.63,-4.92)"
         d="m 235.68,195.46 a 93.73,93.73 0 0 1 -10.54,4.71 101.87,101.87 0 0 1 -35.9,6.46 c -47.32,0 -88.54,-32.55 -88.54,-74.32 A 31.48,31.48 0 0 1 117.13,105 c -42.8,1.8 -53.8,46.4 -53.8,72.53 0,73.88 68.09,81.37 82.76,81.37 7.91,0 19.84,-2.3 27,-4.56 l 1.31,-0.44 a 128.34,128.34 0 0 0 66.6,-52.8 4,4 0 0 0 -5.32,-5.64 z"
         class="cls-1"
         inkscape:connector-curvature="0"
         style="fill:url(#linear-gradient)" />
      <path
         id="path4539"
         transform="translate(-4.63,-4.92)"
         d="m 235.68,195.46 a 93.73,93.73 0 0 1 -10.54,4.71 101.87,101.87 0 0 1 -35.9,6.46 c -47.32,0 -88.54,-32.55 -88.54,-74.32 A 31.48,31.48 0 0 1 117.13,105 c -42.8,1.8 -53.8,46.4 -53.8,72.53 0,73.88 68.09,81.37 82.76,81.37 7.91,0 19.84,-2.3 27,-4.56 l 1.31,-0.44 a 128.34,128.34 0 0 0 66.6,-52.8 4,4 0 0 0 -5.32,-5.64 z"
         class="cls-2"
         inkscape:connector-curvature="0"
         style="opacity:0.35;isolation:isolate;fill:url(#radial-gradient)" />
      <path
         id="path4541"
         transform="translate(-4.63,-4.92)"
         d="M 110.34,246.34 A 79.2,79.2 0 0 1 87.6,225 80.72,80.72 0 0 1 117.13,105 c 3.12,-1.47 8.45,-4.13 15.54,-4 a 32.35,32.35 0 0 1 25.69,13 31.88,31.88 0 0 1 6.36,18.66 c 0,-0.21 24.46,-79.6 -80,-79.6 -43.9,0 -80,41.66 -80,78.21 a 130.15,130.15 0 0 0 12.11,56 128,128 0 0 0 156.38,67.11 75.55,75.55 0 0 1 -62.78,-8 z"
         class="cls-3"
         inkscape:connector-curvature="0"
         style="fill:url(#linear-gradient-2)" />
      <path
         id="path4543"
         transform="translate(-4.63,-4.92)"
         d="M 110.34,246.34 A 79.2,79.2 0 0 1 87.6,225 80.72,80.72 0 0 1 117.13,105 c 3.12,-1.47 8.45,-4.13 15.54,-4 a 32.35,32.35 0 0 1 25.69,13 31.88,31.88 0 0 1 6.36,18.66 c 0,-0.21 24.46,-79.6 -80,-79.6 -43.9,0 -80,41.66 -80,78.21 a 130.15,130.15 0 0 0 12.11,56 128,128 0 0 0 156.38,67.11 75.55,75.55 0 0 1 -62.78,-8 z"
         class="cls-4"
         inkscape:connector-curvature="0"
         style="opacity:0.41000001;isolation:isolate;fill:url(#radial-gradient-2)" />
      <path
         id="path4545"
         transform="translate(-4.63,-4.92)"
         d="m 156.94,153.78 c -0.81,1.05 -3.3,2.5 -3.3,5.66 0,2.61 1.7,5.12 4.72,7.23 14.38,10 41.49,8.68 41.56,8.68 a 59.56,59.56 0 0 0 30.27,-8.35 61.38,61.38 0 0 0 30.43,-52.88 c 0.26,-22.41 -8,-37.31 -11.34,-43.91 C 228.09,28.76 182.35,4.92 132.61,4.92 a 128,128 0 0 0 -128,126.2 c 0.48,-36.54 36.8,-66.05 80,-66.05 3.5,0 23.46,0.34 42,10.07 16.34,8.58 24.9,18.94 30.85,29.21 6.18,10.67 7.28,24.15 7.28,29.52 0,5.37 -2.74,13.33 -7.8,19.91 z"
         class="cls-5"
         inkscape:connector-curvature="0"
         style="fill:url(#radial-gradient-3)" />
      <path
         id="path4547"
         transform="translate(-4.63,-4.92)"
         d="m 156.94,153.78 c -0.81,1.05 -3.3,2.5 -3.3,5.66 0,2.61 1.7,5.12 4.72,7.23 14.38,10 41.49,8.68 41.56,8.68 a 59.56,59.56 0 0 0 30.27,-8.35 61.38,61.38 0 0 0 30.43,-52.88 c 0.26,-22.41 -8,-37.31 -11.34,-43.91 C 228.09,28.76 182.35,4.92 132.61,4.92 a 128,128 0 0 0 -128,126.2 c 0.48,-36.54 36.8,-66.05 80,-66.05 3.5,0 23.46,0.34 42,10.07 16.34,8.58 24.9,18.94 30.85,29.21 6.18,10.67 7.28,24.15 7.28,29.52 0,5.37 -2.74,13.33 -7.8,19.91 z"
         class="cls-6"
         inkscape:connector-curvature="0"
         style="fill:url(#radial-gradient-4)" />
    </g>
    <text
       xml:space="preserve"
       style="font-style:normal;font-weight:normal;font-size:14.11111069px;line-height:1.25;font-family:sans-serif;letter-spacing:0px;word-spacing:0px;fill:#ffffff;fill-opacity:1;stroke:none;stroke-width:0.26458332"
       x="63.122021"
       y="270.91965"
       id="text4594"
       inkscape:export-filename="F:\Programmieren\Git\Firefox Addons\ClearUrls\promotion\MEA-button.png"
       inkscape:export-xdpi="25.4"
       inkscape:export-ydpi="25.4"><tspan
         sodipodi:role="line"
         id="tspan4592"
         x="63.122021"
         y="283.79364"
         style="font-size:14.11111069px;fill:#ffffff;stroke-width:0.26458332" /></text>
    <g
       id="g4607"
       transform="translate(67.73337,2.7074)"
       inkscape:export-filename="F:\Programmieren\Git\Firefox Addons\ClearUrls\promotion\MEA-button.png"
       inkscape:export-xdpi="25.4"
       inkscape:export-ydpi="25.4">
      <text
         id="text4590"
         y="260.3363"
         x="-0.79237193"
         style="font-style:normal;font-weight:normal;font-size:14.11111069px;line-height:1.25;font-family:sans-serif;letter-spacing:0px;word-spacing:0px;fill:#ffffff;fill-opacity:1;stroke:none;stroke-width:0.26458332"
         xml:space="preserve"><tspan
           style="font-size:14.11111069px;fill:#ffffff;stroke-width:0.26458332"
           y="260.3363"
           x="-0.79237193"
           id="tspan4588"
           sodipodi:role="line">GET THE</tspan></text>
      <text
         id="text4598"
         y="276.43811"
         x="-0.23151043"
         style="font-style:normal;font-weight:normal;font-size:10.58333302px;line-height:1.25;font-family:sans-serif;letter-spacing:0px;word-spacing:0px;fill:#000000;fill-opacity:1;stroke:none;stroke-width:0.26458332"
         xml:space="preserve"><tspan
           style="font-style:normal;font-variant:normal;font-weight:bold;font-stretch:normal;font-size:16.93333244px;font-family:sans-serif;-inkscape-font-specification:'sans-serif Bold';fill:#ffffff;stroke-width:0.26458332"
           y="276.43811"
           x="-0.23151043"
           id="tspan4596"
           sodipodi:role="line"><tspan
   id="tspan4600"
   style="font-size:19.75555611px">ADD</tspan>-ON</tspan></text>
    </g>
  </g>
</svg>
